<?xml version="1.0" encoding="UTF-8"?>
<svg id="Capa_1" xmlns="http://www.w3.org/2000/svg" version="1.1" viewBox="0 0 841.92 595.2" fill="black">
  <!-- Generator: Adobe Illustrator 30.0.0, SVG Export Plug-In . SVG Version: 2.1.1 Build 123)  -->
  <path d="M369.43,404.9c-1.56-1.64,1.95-5.86,2.22-7.44.51-2.96-5.87-7.56-8.39-8.68-3.86-1.72-6.81-1.24-10.72-1.99-.06,20.79,2.49,43.93,17.58,59.51,10.58-3.41,19.99-9.52,30.07-14.03,29.28-13.11,78.32-29.57,109.21-16.45,11.28,4.79,14.15,13.02,7.11,23.4-8.34,12.32-28.98,19.73-43,22.72-24.53,5.23-50.1,4.35-74.56-.72-43.77,32.3-91.29,63.48-143.08,81.45-41.28,14.32-105.47,25.74-131.6-20.01-10.9-19.07-11.11-64.47,18.38-64.46,2.76,0,9.26,1.27,9.35,4.84-1.85.75-3.21-.88-5.02-1.45-13.8-4.39-24.84,9.33-26.11,21.9-1.82,18.12,16.87,36.8,31.46,45.17,22.74,13.06,46.63,11.89,71.25,5.23,50.51-13.67,95.56-41.63,140.12-68.06,5.39-3.2,10.67-6.59,15.93-9.97.69-.96-2.25-1.33-3.29-.93-3.47,1.32-9.27,5.69-12.94,7.73-22.52,12.49-46.16,25.25-69.56,35.97-30.96,14.18-61.97,28.53-93.07,5.11-16.3-12.28-21.94-38.26-8.01-54.37,15.68-18.13,47.38-29.45,70.78-31.4,20.8-1.73,51.71,3.73,67.4,18.45.81.76,5.52,5.68,4.79,6.48-.84.17-1.18-.43-1.68-.95-25.18-26.1-71.88-25.15-103.97-13.32-22.71,8.37-59.23,33.42-33.96,59.6,22.35,23.16,59.45,7.4,84.57-2.29,28.61-11.04,56.12-24.8,84.31-36.82-6.11-4.71-11.44-9.63-15.94-15.96-23.24-32.7-11.31-74.91-14.77-111.85-.34-3.61-2.27-9.13-6.23-9.85,3.87-3.89,10.85.28,14.14,3.37,14.41,13.55,9.28,40.93,9.83,59.24.11,3.75.94,7.82.5,11.73,8.19-2.43,16.26-6.51,18.18-15.63-1.1-15.93,1.62-34.18.04-49.83-.2-1.95-1.33-5.06-2.47-6.64-1.23-1.7-2.54-1.77-3.76-3.19,6.01-2.26,11.96,1.55,15.82,6,13.39,15.46,7.23,39.73,8.66,58.49l5.61,5.94c1.51.39,11.79-5.58,11.68-8.3l-.56-52.25c-.74-4.29-2.29-7.79-6.65-9.16,3.78-2.47,8.5-.81,11.85,1.57,7.27,5.14,11.29,14.29,12.59,22.9l-.24,32.84c-5.95,5.77-14.02,8.48-21.18,12.4-6.42,3.51-14.33,7.35-20.26,11.4-5.07,3.46-8.41,7.39-11.07,12.94l-1.35-.39ZM472.47,414.62c-4.69-.01-9.47,1.37-14.01,2.53-27.96,7.17-52.68,19.54-76.99,34.78-.27.17-1.35.73-1.1,1.05l2.89.77c24.01-14.86,49.03-28.89,76.54-36.23l12.68-2.91ZM401.48,459.69c26.25,5.18,54.69,5.7,80.59-1.67,11.16-3.18,29.41-11.44,34.63-22.45,8.54-18.01-19.67-21.8-31.45-20.41-31.47,3.72-57.22,25.91-82.1,42.62-.57.38-1.34,1.29-1.67,1.92Z"/>
  <path d="M156.82,252.98l4.83-22.26c3.67-13.91,11.39-36.52,23.31-45.28,6.9-5.07,7.15-1.34,12.48,2.23,3.9,2.61,8.07,4.81,12.62,6.09l.43.87c-.82,1.35-1.29,2.6-1.64,4.14-3.02,13.17.63,34.48,6.72,46.55.68,1.34,4.7,7.28,4.57,7.89-.18.86-.73.53-1.27.33-4.36-1.57-6.86-3.13-11.91-2.96-18.64.63-39.5,17.86-48.7,33.32l32.39-17.81c5.4,2.99,15.64,16.45,22.07,15.2,1.2-.23,1.03-1.2,1.27-1.35,1.52-.95,1.93,1.35,1.87,2.52-.21,4.07-5.79,6.6-5.79,7.2v37.89c0,.1-.81.87-.95.72-2.41-10.02-11.12-18.6-21.06-21.15l-.08-24.15c-1.16-4.23-6.75-6-10.72-5.5-2.5.31-16.83,8.44-18.52,10.4-.29.33-1.91,3.04-1.91,3.23v38.13l-3.28-7.52c-3.95-6.88-10.46-12.64-18.31-14.55v-65.47l-1.19-.73c-8.65,3.85-11.95,9.66-12.71,18.97-2.07,25.07,1.55,52.84-.03,78.19,1.81,13.79-.72,28.96.48,42.69.28,3.22,1.15,5.54,4.84,4.81,1.64-.32,8.34-3.86,8.62-5.31-.61-16.96.79-34.45.02-51.34-.22-4.75-.52-11.55-3.85-15.2-1.11-1.22-2.86-1.53-3.84-2.76,13.74-4.45,24.08,12.16,27.11,23.49,3.39,12.69.83,24.03,2.15,36.22,1.23,11.36,10.99,5.69,16.78,11.99l-6.25.46c-5.05.94-21.84,11.3-26.52,14.73-1.8,1.32-3.79,2.9-5.12,4.71,12.15,2.66,23.82,9.96,33.53,17.56,3.44,2.7,8.29,8.25,11.4,10.18,5.43,3.37,6.96-.62,7.37-5.42l-.02-102.17c-.83-4.92-2.57-9.8-7.68-11.52,11.38-5.06,22.24,8.97,25.8,18.34,5.58,14.71,3.3,35.8,3.45,51.7.11,11.87,1.5,24.48.52,36.45-.08,1.01-.21,2.04-.63,2.98-13.26,7.2-25.66,15.98-38.89,23.23-1.48.81-4.38,2.8-5.83,2.81-4.39.04-17.69-12.16-22.16-15.28-17.18-11.97-47.09-23.09-65.02-7.29-.64.56-2,3.34-2.71,1.12-.62-1.94,1.26-5.46,2.25-7.2,3.77-6.65,10.53-11.22,17.36-14.3,1.63-.74,4.87-.87,5.26-2.9l.03-120.87c-.47-6.75-1.6-12.81-9.8-12.15-3.19.26-12.61,4.13-14.69,2.1-.59-.57-.55-.9-.48-1.67,2.26.42,4.26.43,6.43-.53l53.32-31.13v-1.44c-.37-.52-.81-.89-1.47-.96-1.9-.18-6.08,1.51-8.62,1.47-7.45-.11-14.97-6.02-14.15-13.95,3.46,1.69,4.96,2.26,8.64.72l44.38-25.65c2.08.23-.69,2.55-1.13,3.19-2.69,3.94-5.36,10.48-5.36,15.27v37.65ZM187.04,190.16c-3.95.14-6.88,5.09-8.84,8.19-4.11,6.49-7.44,14.42-10,21.65-6.65,18.81-10.13,39.42-10.9,59.36l7.42-9.6c8.47-8.36,18.47-16.21,29.99-19.66l-3.74-5.61c-8.72-16.56-8.23-36.52-3.93-54.34ZM133.65,385.44l-23.36,14.06c.45.7.92.66,1.65.74,3.69.4,8.2-.24,12.04-.04,2.23.11,6.56,1.56,8.37.73,3.35-1.53,2.5-11.09,2.88-14.38-.19-1.01-.58-1.37-1.57-1.12Z"/>
  <path d="M696.03,394.47l-.3.99c-9.01,5.15-19.49,9.19-25.12,18.44l36.94-1.2-1.46-20.37c-1.52-21.07,2.31-45.55-.46-66.21-.5-3.7-2.64-7.72-6.24-9.11,3.45-2.74,8.35-.81,11.67,1.28,7.61,4.81,13.3,16.85,14.18,25.63,2.17,21.59-1.55,46.02.54,68.04.08.86.29,1.72.58,2.53,21.01,4.75,49.33,11.23,62.36,29.98,8.36,12.02,8.21,26.69-8.25,30.34-14.52,3.22-31.56-3.05-43.34-11.37-14.32-10.11-23.48-26.24-27.68-43.08-1.11-1.01-17.65,7.72-19.99,9.03-26.47,14.86-56.3,40.86-68.5,69.16-7.69,17.83-9.41,39.7,9.98,50.43,27.24,15.07,70.84-7.68,87.06-31.11,9.43-13.62,14.02-33.55-2.06-44.29-3.11-2.08-6.93-2.93-9.84-5.02,1-1.54,1.85-.88,3.33-.46,18.56,5.32,22.83,24.02,16.08,40.49-11.46,27.96-48.74,48.02-78.2,47.52-39.31-.67-59.67-26.22-42.37-63.5,10.63-22.91,29.64-38.81,50.53-52.12,3.87-2.46,8.07-4.47,11.76-7.18-30.68,12.04-57.68,31.53-86.03,48.04-41.21,23.99-92.89,47.9-140.31,55.4-23.18,3.67-80.94,3.38-84.29-29.1-.07-.63-.82-1.62.48-1.44,1.3,2.84,1.43,5.98,3.4,8.6,2.28,3.04,9.26,6.85,12.83,8.27,17.3,6.86,52.98,2.25,71.42-1.67,34.94-7.43,68.29-22.26,100.91-36.28l.22-3.85,1.19,3.35c24.76-11.56,48.83-24.61,73.47-36.38,12.09-5.77,24.92-11.82,37.27-16.94,13.12-5.44,27.06-10.53,41.1-12.87.13-.8-1.16-.52-1.69-.49-6.98.38-16.95,2.71-23.84,4.47-35.94,9.22-77.12,28.94-111.52,43.9-32.89,14.31-67.05,33.47-103.54,36.05-11.05.78-39.31.36-46.03-10.09-1.13-1.75-2.19-5.46.7-6.21-3.7,4.46,5.57,8.04,8.9,9.08,16.84,5.24,44.92-4.08,61.25-10.16,57.56-21.44,114.57-50.23,174.4-65.44,1.99-.51,7.44-1.02,8.74-1.81.8-.49.21-.79-.26-1.21-2.78.74-5.73.68-8.57,1.02-20.09,2.41-60.63,13.47-77.87,2.91-7.92-4.86-12.32-14.27-7.44-22.97,1.29-2.3,6.03-7.1,8.73-5.66-1.79,2.01-3.93,2.96-4.94,5.62-3.2,8.42,1.14,14.82,8.77,18.38,13.59,6.34,44.27,2.59,59.74,1.18,6.31-.57,14-.99,20.11-1.96.81-.13,1.83-.34,2.43-.93.38-.37,2.6-4.97,2.55-5.43-.19-2.04-5.33-6.15-7.13-7.23-3.14-1.87-5.77-2.71-9.45-3.03-.65-.06-6.45.66-3.46-1.8.68-.56,5.83-1.71,7.51-2.56,5.18-2.61,9.99-7.48,11.15-13.31v-55.07c-.75-3.26-1.89-5.82-4.51-7.96-.76-.62-1.96-.64-2.16-1.43,6.28-2.65,12.62,1.44,16.77,6,15.07,16.54,7.83,43.3,9.72,63.66,1.12,3.9,3.8,7.78,8.04,8.51ZM673.96,416.06c-1.39.11-3.99-.5-4.79.95l4.79-.95ZM726.73,418.45c1.07,12.05,4.55,25.77,11.31,35.92,8.35,12.54,35.69,25.41,48.88,14.42,12.1-10.09-2-25.66-11.11-32.03-14.16-9.9-32.19-15.39-49.08-18.31Z"/>
  <path d="M485.91,146.03c-13.16-.28-23.69-.82-35.16,6.33-17.16,10.69-25.64,30.28-26.74,50.01-1.52,27.24-.3,57.77-.48,85.37-.08,12.24-.1,24.5.49,36.71-1.49-1.7-2.11-4.04-3.34-6.01-2-3.21-4.98-6.13-8.21-8.1-1.31-.8-6.35-2.73-6.6-3.47-.28-15.16.1-30.34-.06-45.51-.01-1.39-.53-2.72-.53-4.3,0-4.57,2.62-12.05-2.98-14.25-5.1-2.01-12.92,1.15-13.32,7.04.48,24.75-.81,49.66.52,74.34.04.77.35,3.29-.5,3.62-.68-10.18-9.26-17.6-18.26-20.94l-.48-52.19c.16-1.06,1.43-1.53,2.28-2.07,10.74-6.81,22.64-11.89,33.01-19.28.26-3.58-.33-7.15-.26-10.82.22-12.2.11-24.37,4.33-35.96,12.77-35.08,47.97-44.71,81.74-48.73,10.04-12.25,21.64-22.15,35.32-30.16-.66-1.09-2.44-1.48-3.59-1.92-23.89-9.11-52.23-13.13-77.75-12.01-19.21.85-43.84,8.09-51.63,27.51-5.81,14.48-.57,33.17,18.33,28.4,1.53-.39,3.43-1,4.54-2.17,1.22-1.29,1.41-4.78,3.08-2.58-.23,6.47-9.8,8.38-14.95,7.73-15.11-1.93-18.31-17.39-14.41-29.99,4.83-15.59,21.79-30.61,36.42-36.97,39.28-17.05,85.99-5.36,123.3,11.32,42.6-14.56,90.72-8.14,132.35,6.82,26.05,9.37,68.49,35.01,57.05,68.58-12.06,35.37-67.31,23.3-93.87,15.71-31.48-8.99-62.14-20.78-93.82-29.46-17.9-4.91-35.9-9.89-54.47-11.6-11.69,16.2-13.7,46.51,8.67,54.52,7.17,2.57,21-.24,23.78-8.13.6-1.69.69-6.61,1.04-7.12,2.19-3.2,2.87,4.44,2.62,5.98-.65,4.08-7.25,10.12-11.01,11.53-20.49,7.66-38.75-9.76-42.46-28.99-1.91-9.9,1.71-20,6.01-28.79ZM559.79,100.95c-.24.31.81.86,1.1,1.05,11.94,7.49,26.03,13.88,38.38,21.1,32.17,18.81,70.17,46.84,106.15,56.47,9.36,2.5,16.03,3.66,24.35-2.44,19.83-14.56-.23-42.25-14.4-52.59-32.83-23.96-82.86-36.28-123.13-31.2-11.04,1.39-21.88,4.28-32.45,7.61ZM684.99,181.05c-50.87-20.12-96.63-51.09-148.11-69.94-1.61-.14-7.95,3.9-9.67,4.99-8.86,5.63-16.52,12.9-23.07,21.06,42.88.65,82.35,17.99,122.7,29.84,12.1,3.55,24.87,6.9,37.13,9.88,6.34,1.54,13.17,3.25,19.56,4.43.5.09,1.57.63,1.46-.26Z"/>
  <path d="M275.31,146.03c-.98.12-.79.09-1.08-.6-.65-1.54-.78-3.92-1.43-5.76-1.41-3.97-4.33-9.39-7.6-12.06-2.21-1.8-4.89-2.31-7.15-3.88v-35.25c-4.6,1.12-8.04,4.49-9.37,9.1-2.6,8.98-.75,21.13-.68,30.45.16,20.69-1.73,45.14-.04,65.27.41,4.89,2.32,5.9,6.7,3.31,2.27-1.34,2.44-2.76,2.86-5.29,1.67-9.94,1.64-44.59-.08-54.5-.47-2.73-1.23-5.37-2.97-7.58-.34-1.37-3.87-1.65-3.62-2.62.12-.45,1.66-.68,2.15-.73,15.61-1.51,21.54,21.98,22.31,33.82.29,4.54-.99,17.63.96,20.62,2.33,3.58,8.12,2.93,8.15,7.43-2.72-1.24-4.74-1.22-7.52-.09-2.29.93-14.6,7.99-16.44,9.46-.9.72-1.26,1.91-2.18,2.62l-.47-.96-3.13,1.92c9.48-.26,19.06,1.06,27.94,4.44,3.09,1.18,9.06,5,11.64,5.06,2.65.06,2.95-2.2,3.13-4.44,1.3-15.64-.17-34.97-.52-50.84-.15-6.94,2.02-22.91-4.12-27.06-.52-.35-4.43-1.2-.78-1.85,15.14-2.69,21.98,20.45,22.7,31.74.85,13.38-.29,27.78.44,41.29.08,1.43,1.32,5.64.76,6.48-.93.92-2.18-.07-3.37-.05-9.12.14-20.97,7.68-27.61,13.69-1.43,1.3-5.37,6.22-6.58,6.4-1.86.29-2.97-1.85-4.22-2.79-15.2-11.38-41.55-15.11-53.7,2.4-.96,1.03.65,5.54-.51,5.73-1.02.17-2.34-2.37-2.52-3.22-1.12-5.44,3.26-12.17,7.08-15.72,1.38-1.29,7-4.69,7.21-5.75-.14-16.31.17-32.63.02-48.94-.06-6.94-.44-14.18-.52-21.06s.7-14.83.03-21.13c-1.3-12.1-12.67-2.97-17.91-4.64-.63-.2-.93-.69-.8-1.35l3.57-.03,41.69-24.06c.64-6.37,1.47-17.54-5.93-20.26-6.04-2.22-10.85,1.72-16.49,1.15-1.53-.15-4.57-1.16-3.17-3.09,1.91-.12,3.36.48,5.41.13s6.15-2.4,8.2-3.31c12.86-5.73,24.64-14.68,37.48-20.56.57.53.94.61.5,1.45-.67,1.28-2.83,3.47-3.86,5.26-1.1,1.93-4.55,9.46-4.55,11.28v88.97Z"/>
  <path d="M205.74,99.03c-6.22,5.71-11.45,12.43-16.77,18.96-24.1,29.68-47.37,72.95-85.51,85.25-38.76,12.49-64.92-18.62-52.69-56.03,12.25-37.47,58.49-73.98,99.34-66.19,11.05,2.11,22.69,11.57,15.25,23.44-1.55,2.47-3.49,4.89-6.63,5.11,6.06-4.04,8.67-9.25,4.88-16.14-11.35-20.62-53.53-7.78-69.31,1.85-25.82,15.77-56.26,60.49-30.09,87.93,31.75,33.28,73.91-16.11,94.76-38.61,7.99-8.62,15.24-17.97,23.74-26.14l.95-1.68c-10.84,8.98-19.85,20.02-30.21,29.5-11.48,10.51-39.39,33.49-54.93,33.37-9.53-.08-18.89-6.71-19.91-16.59-1.76-17.05,16.17-34.57,33.21-32.24,2.33.32,7.54,1.61,7.08,4.67-5.57-2.41-10.03-3.59-16.04-1.89-10.53,2.97-24.98,16.15-16.79,27.76,9.01,12.77,29.54-.05,39.03-6.01,29.2-18.33,52.7-46.03,80.96-64.86,10.23-6.82,30.79-19.36,42.5-11.49,1.56,1.05,3.5,1.54,1.07,3.13-3.54-2.9-7.33-2.57-11.54-1.34-25.11,7.35-56.26,48.44-45.54,74.83,2.03,5.01,7.44,10.73,13.35,10.53,6.18-.21,13.52-4.35,16.86-9.55,1.27.59-.73,2.52-1.21,3.1-8.45,10.08-24.39,10.3-31.85-1.23-9.7-14.99-2.87-32.83,5.65-46.55l10.37-12.89Z"/>
  <path d="M687.87,252.98l2.79-7.52,2.94-4.73,18.53-10.79,1.43.47,12.71,12.71c1.46,1.37-.51,3.6-.51,4.34v87.05l-1.83-6.08c-1.77-4.29-6.37-9.28-10.2-11.86-2.48-1.67-5.1-2.39-7.57-3.94-.17-6.38-.01-12.76-.04-19.14-.04-8.55.21-17.29-.52-25.86-.72-3.48.95-8.9.48-11.98-.21-1.38-10.04-11.61-10.84-11.75-1.78-.32-3.88,7.6-4.26,9.07-1.28,4.97-2.18,10.95-2.63,16.07-1.83,20.74.37,42.66-.49,63.54l-2.63-6.72c-2.38-4.36-6.52-8.33-10.84-10.74-1.16-.65-5.91-2.34-6.13-2.98l-.07-56.04-12.97-13.41c-.47-.52-.63-1.21-.41-1.87.34-1.04,16.71-9.42,18.91-10.86,1.86,1.3,14.14,13.14,14.14,14.14v8.87Z"/>
  <path d="M317.52,251.54l2.94-7.85,2.32-3.44,17.17-10.22c.59-.24.9.08,1.34.38,1.61,1.08,10.18,9.79,11.5,11.53,2.05,2.69-.26,3.43-.27,6.46l.26,79.4c-1.62-9.67-9.3-17.55-18.5-20.44l.02-53.65-10.3-10.79c-3.29,5.1-4.64,12.05-5.46,18.04-2.85,20.92.03,43.75-1.03,64.92l-2.13-5.77c-3.49-6.19-9.2-10.9-16.03-12.99l-.08-52.44-.44-1c-2.89-3.81-9.62-8.22-12.04-11.94-.37-.56-.63-.97-.44-1.68l17.9-10.05,13.26,13.14v8.39Z"/>
  <path d="M485.05,404.42c-1.61-1.69,2.17-6.08,2.29-7.83.19-2.8-6.62-7.6-9.12-8.59-3.46-1.37-5.13-.82-8.41-1.18-5.91-.65,5.51-4.03,6.52-4.56,4.88-2.56,8.87-7.06,10.01-12.53-1.1-15.93,1.62-34.18.04-49.83-.2-1.95-1.33-5.06-2.47-6.64-1.23-1.7-2.55-1.77-3.76-3.19,6.01-2.26,11.96,1.55,15.82,6,13.39,15.46,7.24,39.72,8.66,58.49.21,1.11,5.16,6.11,6.35,5.94,2.51-.37,7.56-3.9,7.51-6.93,1.05-16.52-1.26-34.47.02-50.81.64-8.13,5.55-18.02,12.05-22.96,2.93-2.23,8.49-4.5,11.96-2.45,1.44.85-1.64,1.32-2.18,1.67-2.52,1.64-3.83,6-4.08,8.87l-.49,51.36c.52,3.93,8.58,4.52,2.87,9.53-9.89,8.66-29.38,15.05-41.18,23.1-5.07,3.46-8.41,7.39-11.07,12.94l-1.35-.39Z"/>
  <path d="M649.98,324.44l-3.44-6.87c-2.46-3.43-5.66-6.32-9.36-8.39-1.16-.65-4.64-1.59-4.88-2.32l-.56-53.16-10.04-10.54c-1.77-.67-6.56,2.99-6.27,5.24.7,24.9-.96,49.96-.01,74.85.06,1.57.58,2.97.5,4.53-1.33-1.4-1.22-3.89-1.98-5.93-2.45-6.65-9.8-13.05-16.67-14.75-.5-15.87.46-31.82-.04-47.69-.05-1.72-1.3-4.8-.03-6.22l40.55-23.09c1.63.32,2.07,1.93,3.1,2.97,1.58,1.59,9.88,9.26,10.33,10.28.33.74-1.2,3.36-1.2,4.09v76.98Z"/>
  <path d="M284.28,311.65c-4.73-3.66-10.47,3.37-12.33,7.28-6.36,13.34-3.69,33.68,7.93,43.4,1.45,1.21,3.41,1.71,4.48,3.19.91,4.72-19.03,13.38-22.81,15.44-6.42,3.51-14.33,7.35-20.26,11.4-5.07,3.46-8.41,7.39-11.07,12.94-4.31-.65.8-6.14.94-8.22.19-2.8-6.62-7.6-9.12-8.59-3.46-1.37-5.13-.82-8.41-1.18-5.91-.65,5.51-4.03,6.52-4.56,4.88-2.56,8.87-7.06,10.01-12.53-1.1-15.93,1.62-34.18.04-49.83-.2-1.95-1.33-5.06-2.47-6.64-1.23-1.7-2.54-1.77-3.76-3.19,6.01-2.26,11.96,1.55,15.82,6,13.39,15.46,7.23,39.73,8.66,58.49l5.97,6c2.71-1.06,6.76-2.66,7-5.99.13-1.81-3.06-8.91-3.83-11.54-4.98-17.13-3.86-44.51,14.65-53.38,3.53-1.69,13.63-3.87,14.49,1.72.57,3.71-2.15.06-2.47-.19Z"/>
  <path d="M625.03,311.49c5.83-4.63,13.4,1.26,17.26,6.01,11.44,14.1,6.82,33.43,7.59,50.25-.95,3.26-20.62,12.4-24.69,14.65-8.82,4.86-20.18,9.88-25.78,18.35-.76,1.16-1.74,4.78-3.39,4.27-2.3-.71,1.45-7.1,2.15-8.39-3.76-6.96-11.36-10.41-19.18-9.84-.37-2.5,3.12-2.24,4.93-2.98,6.45-2.64,12.39-7.7,13.25-15.05,1.78-15.23-.85-34.25-.48-49.78-.64-3.46-2.44-7.41-6.18-8.2,4.6-3.16,10.61.3,14.16,3.58,15.47,14.31,9.09,41.75,10.79,60.67l5.57,5.93c3.01-1.22,10.79-4.98,11.23-8.29-1.19-17.24,1.73-36.75-.55-53.7-.4-3-3.12-8.09-6.68-7.48Z"/>
  <path d="M355.42,207.9c-9.89,7.39-23.58,9.01-29.02,21.56l-1.24-.77c-.14-3.69,3.76-5.03,1.24-8.32-2.07-2.7-6.32-5.14-9.65-5.69-1.67-.28-3.75.57-4.97-.77,1.59-1.71,4.13-1.81,6.25-2.86,4.17-2.06,7.5-5.59,8.5-10.21-.74-12.98,1.39-27.89.11-40.65-.27-2.68-1.81-7.02-4.79-7.45l.28-.98c8.22-2.33,15.16,7.4,17.49,14.16,4.17,12.13.4,26.15,1.89,38.4.24,2.01,2.81,6.6,5,6.47,3.83-.22,7.18-5.4,8.1-8.74,1.89-6.78,1.27-29.12.83-37.09-.13-2.31-.43-6.38-1.22-8.37-.75-1.88-2.16-3.42-4.07-4.08,6.29-3.84,13.45,4.08,16.22,9.2,6.93,12.83,1.59,35.89,5.89,51.67,1.53,5.61,5.74,17.09,12.43,17.55.19,1.02-.69,1.33-1.41,1.7-8.84,4.64-17.04-7.98-22.57-12.98-1.36-1.23-5.28-3.1-5.28-4.79v-6.95Z"/>
  <path d="M249.4,327.8c-1.24.14-.76,0-.97-.7-.37-1.25-.37-2.74-.8-4-2.65-7.8-9.95-13.44-17.44-16.24l-.48-52.19,38.09-22.21c5.67,3.9,9.81,9.49,15.91,12.84,1.25,5.87-1.47,16.26,1.74,21.29.59.93,2.53,1.62,2.34,2.45-7.4,3.21-13.35,7.41-18.69,13.45-10.74,12.13-18.36,29.1-19.68,45.31ZM248.44,248.43v68.82l5.67-17.11c3.13-6.44,6.24-12.86,10.86-18.4-.28-10.73,1.27-23.21.28-33.81-.53-5.69-6.14-6.84-10.83-5.04-2.04.78-5.58,3.29-5.98,5.53Z"/>
  <path d="M517.92,301.04c.87,1.4-.46,1.71-1.78,1.09-2.52-1.2-4.46-6.53-4.75-9.16-1.52-14.13,7.47-31.38,9.42-45.14,1.34-9.45-14.5-6.84-16.08.23-.09,26.25-.48,52.6.36,78.78l-1.98-5.92c-3.33-7.09-9.53-11.82-16.74-14.53l-.48-52.19,38.09-22.21c1.44.13,8.02,7.14,9.68,8.52s6.58,3.74,6.47,5.49c-.06.88-1.36,3-1.84,3.96-5.93,11.75-16.74,25.48-21.43,37.09-1.67,4.15-2.45,9.5.05,13.4.21.32.92.45,1.02.61Z"/>
  <path d="M370.29,164.01c.03.58,1.52,2.44-.48,2.16-.44-8.21-7.09-14.53-14.66-16.76-1.76-12.05-3.25-26.34-11.97-35.52-.98-.21-.68.38-.86,1.04-2.25,8.19-1.25,36.38-.84,46.22.07,1.65.81,3.28.49,5.02-1.4-1.5-.99-3.73-1.98-5.93-2.3-5.14-7.84-9.58-13.31-10.91l.15-26.83.78-1.13c3.37-1.11,12.7-10.01,15.12-10.35,3.95-.55,7,6.9,8.44,9.75l3.75,9.91c1.12-6.3.05-12.55-.07-18.86-6.71-5.29-11.41-14.02-20.77-14.72-15.33-1.16-21.74,11.54-17.05,24.96-3.78-1.37-3.59-7.44-3.38-10.81.99-15.38,14.67-26.35,29.88-23.6,10.85,1.96,18.41,14.3,26.75,20.74.78,18.3-1.04,37.44,0,55.64Z"/>
  <path d="M578.01,382.97l-.29.98c-7.99,4.53-17.49,8.08-22.84,15.93-1.18,1.73-1.77,4.25-3.48,5.16-3.18.02.93-7.17,1.67-8.41-3.76-6.97-11.37-10.41-19.18-9.84-.37-2.5,3.12-2.24,4.93-2.98,6.45-2.64,12.39-7.7,13.25-15.05,1.76-15.11-.87-33.93-.43-49.35-.48-3.32-2.38-8.17-6.23-8.4,4.1-3.69,10.69.14,14.16,3.35,15.48,14.32,9.08,41.73,10.81,60.66.36,1.96,5.77,6.87,7.65,7.95Z"/>
  <path d="M467.2,382.97l-.29.98c-7.99,4.53-17.49,8.08-22.84,15.93-1.18,1.73-1.77,4.25-3.48,5.16-3.18.02.93-7.17,1.67-8.41-3.76-6.97-11.37-10.41-19.18-9.84-.37-2.5,3.12-2.24,4.93-2.98,6.45-2.64,12.39-7.7,13.25-15.05,1.76-15.11-.87-33.93-.43-49.35-.48-3.32-2.38-8.17-6.23-8.4,4.1-3.69,10.69.14,14.16,3.35,15.48,14.32,9.08,41.73,10.81,60.66.36,1.96,5.77,6.87,7.65,7.95Z"/>
  <path d="M297.95,404.9c-1.61-1.69,2.17-6.08,2.29-7.83.19-2.8-6.62-7.6-9.12-8.59-3.46-1.37-5.13-.82-8.41-1.18-5.91-.65,5.51-4.03,6.52-4.56,4.77-2.5,8.66-6.84,9.94-12.13-.97-16.03,1.7-34.48.11-50.24-.39-3.89-2.58-7.93-6.23-9.6,7.37-3.28,14.46,3.34,18.24,9.1,10.33,15.74,4.8,37.78,6.25,55.62,1.3,4.03,3.54,6.84,7.64,8.18-9.66,6.32-21.16,10.02-25.89,21.61l-1.35-.39Z"/>
  <path d="M570.34,325.16c.04.55.88,1.69.47,2.64-.61.84-1.48-4.67-1.69-5.26-2.4-6.97-9.83-13.65-16.96-15.42-.28-10.29.17-20.61-.04-30.9-.03-1.25-.48-2.43-.52-3.79-.1-3.49.65-8.4.4-11.42-.14-1.69-1.52-4.27-3.12-5.03-3.62-1.72-5.66,1.25-8.51.85l-.28-1.23,26.07-15.5c4.86,3.54,8.25,9.52,14.97,9.52,1.3,0,6.56-1.82,6.95-1.43.1.82.08,1.07-.49,1.67-1.19,1.27-6.46,3.47-8.29,4.66-2.99,1.94-8.97,7.41-8.97,11.18,0,19.15-1.22,40.63,0,59.47Z"/>
  <path d="M459.52,325.16c.04.55.88,1.69.47,2.64-.61.84-1.48-4.67-1.69-5.26-2.4-6.97-9.83-13.65-16.96-15.42-.28-10.29.17-20.61-.04-30.9-.03-1.25-.48-2.43-.52-3.79-.1-3.49.65-8.4.4-11.42-.14-1.69-1.52-4.27-3.12-5.03-3.62-1.72-5.66,1.25-8.51.85l-.28-1.23,26.07-15.5c4.86,3.54,8.25,9.52,14.97,9.52,1.3,0,6.56-1.82,6.95-1.43.1.82.08,1.07-.49,1.67-1.19,1.27-6.46,3.47-8.29,4.66-2.99,1.94-8.97,7.41-8.97,11.18,0,19.15-1.22,40.63,0,59.47Z"/>
  <path d="M653.81,211.25l-43.04,24.36c-6.32,2.55-13.35.32-18.14-4.19-.68-.64-5.44-6.07-5.51-6.49-.17-1.06.26-.57.7-.77,9.72-4.37,18.68-8.78,29.06-11.71,8.45-2.38,27.88-6.32,35.77-2.67.71.33,1.36.48,1.16,1.46Z"/>
  <path d="M563.14,170.97v17.99c0,3.52,4.7,10.43,7.45,12.7,5.11,4.23,8.43,3.8,14.38,4.81,1.82.31,1.59,1.72-.45,1.94-5.84.62-9.61.65-14.4,4.78-3.03,2.61-6.97,9.72-6.97,13.66v12.95c0,.95-2.88.95-2.88,0v-9.11c0-9.77-9.23-19.75-18.59-21.7-1.16-.24-3.23.15-3.97-.35-.98-.67-.23-2.17.25-2.17h10.07c1.39,0,5.85-2.93,6.95-4.08,2.07-2.16,5.28-9.13,5.28-11.99v-19.42h2.88Z"/>
  <path d="M452.33,170.97v17.99c0,3.52,4.7,10.43,7.45,12.7,5.11,4.23,8.43,3.8,14.38,4.81,1.82.31,1.59,1.72-.45,1.94-5.84.62-9.61.65-14.4,4.78-3.03,2.61-6.97,9.72-6.97,13.66v12.95c0,.95-2.88.95-2.88,0v-9.11c0-9.77-9.23-19.75-18.59-21.7-1.16-.24-3.23.15-3.97-.35-.98-.67-.23-2.17.25-2.17h10.07c1.39,0,5.85-2.93,6.95-4.08,2.07-2.16,5.28-9.13,5.28-11.99v-19.42h2.88Z"/>
</svg>